<?xml version="1.0" standalone="no"?>
<svg viewBox="0 0 200 200" xmlns="http://www.w3.org/2000/svg">
  <path fill="#24A148" d="M40.3,-55.5C46.4,-51,41.6,-31.5,40.9,-17.2C40.2,-2.9,43.6,6.2,45,18.5C46.4,30.9,45.7,46.5,37.9,53.9C30.1,61.4,15,60.6,-2.2,63.6C-19.4,66.6,-38.9,73.4,-54.1,68.4C-69.3,63.4,-80.2,46.5,-84.3,28.7C-88.3,10.8,-85.5,-8,-79.1,-25.1C-72.7,-42.2,-62.8,-57.5,-49.1,-59.5C-35.3,-61.5,-17.6,-50.2,-0.3,-49.8C17.1,-49.4,34.1,-59.9,40.3,-55.5Z" transform="translate(100 100)" />
</svg>
